<svg xmlns="http://www.w3.org/2000/svg" viewBox="0 0 960 500" width="960" height="500">
  <style>text { font-family: "Helvetica Neue", Helvetica, Arial, sans-serif; }</style>
  <defs>
    <marker id="ab" markerWidth="10" markerHeight="7" refX="9" refY="3.5" orient="auto"><polygon points="0 0, 10 3.5, 0 7" fill="#2563eb"/></marker>
    <marker id="ag" markerWidth="10" markerHeight="7" refX="9" refY="3.5" orient="auto"><polygon points="0 0, 10 3.5, 0 7" fill="#16a34a"/></marker>
    <marker id="ao" markerWidth="10" markerHeight="7" refX="9" refY="3.5" orient="auto"><polygon points="0 0, 10 3.5, 0 7" fill="#ea580c"/></marker>
  </defs>
  <rect width="960" height="500" fill="#ffffff"/>
  <text x="480" y="32" text-anchor="middle" font-size="18" font-weight="600" fill="#111827">MLOps Pipeline — Data and Training Flow</text>
  <rect x="80" y="90" width="120" height="56" rx="8" fill="#eff6ff" stroke="#bfdbfe" stroke-width="1.5"/>
  <text x="140" y="116" text-anchor="middle" font-size="13" font-weight="600" fill="#111827">Raw MP4</text>
  <text x="140" y="134" text-anchor="middle" font-size="11" fill="#6b7280">DVC Storage</text>
  <rect x="240" y="90" width="130" height="56" rx="8" fill="#f0fdf4" stroke="#bbf7d0" stroke-width="1.5"/>
  <text x="305" y="116" text-anchor="middle" font-size="13" font-weight="600" fill="#111827">Extract Frames</text>
  <text x="305" y="134" text-anchor="middle" font-size="11" fill="#6b7280">OpenCV</text>
  <rect x="410" y="90" width="130" height="56" rx="8" fill="#f0fdf4" stroke="#bbf7d0" stroke-width="1.5"/>
  <text x="475" y="116" text-anchor="middle" font-size="13" font-weight="600" fill="#111827">Detect Faces</text>
  <text x="475" y="134" text-anchor="middle" font-size="11" fill="#6b7280">MTCNN</text>
  <rect x="580" y="90" width="140" height="56" rx="8" fill="#f0fdf4" stroke="#bbf7d0" stroke-width="1.5"/>
  <text x="650" y="116" text-anchor="middle" font-size="13" font-weight="600" fill="#111827">Compute Features</text>
  <text x="650" y="134" text-anchor="middle" font-size="11" fill="#6b7280">EfficientNet</text>
  <rect x="760" y="90" width="130" height="56" rx="8" fill="#faf5ff" stroke="#ede9fe" stroke-width="1.5"/>
  <text x="825" y="116" text-anchor="middle" font-size="13" font-weight="600" fill="#111827">Train Model</text>
  <text x="825" y="134" text-anchor="middle" font-size="11" fill="#6b7280">PyTorch</text>
  <rect x="760" y="220" width="130" height="56" rx="8" fill="#faf5ff" stroke="#ede9fe" stroke-width="1.5"/>
  <text x="825" y="246" text-anchor="middle" font-size="13" font-weight="600" fill="#111827">Evaluate Model</text>
  <text x="825" y="264" text-anchor="middle" font-size="11" fill="#6b7280">MLflow</text>
  <rect x="580" y="220" width="140" height="56" rx="8" fill="#fff7ed" stroke="#fed7aa" stroke-width="1.5"/>
  <text x="650" y="246" text-anchor="middle" font-size="13" font-weight="600" fill="#111827">Model Registry</text>
  <text x="650" y="264" text-anchor="middle" font-size="11" fill="#6b7280">MLflow</text>
  <rect x="410" y="220" width="130" height="56" rx="8" fill="#fff7ed" stroke="#fed7aa" stroke-width="1.5"/>
  <text x="475" y="246" text-anchor="middle" font-size="13" font-weight="600" fill="#111827">Promote to Prod</text>
  <text x="475" y="264" text-anchor="middle" font-size="11" fill="#6b7280">MLflow</text>
  <rect x="240" y="220" width="130" height="56" rx="8" fill="#fef2f2" stroke="#fecaca" stroke-width="1.5"/>
  <text x="305" y="246" text-anchor="middle" font-size="13" font-weight="600" fill="#111827">FastAPI Serve</text>
  <text x="305" y="264" text-anchor="middle" font-size="11" fill="#6b7280">port 8000</text>
  <rect x="80" y="220" width="120" height="56" rx="8" fill="#fef2f2" stroke="#fecaca" stroke-width="1.5"/>
  <text x="140" y="246" text-anchor="middle" font-size="13" font-weight="600" fill="#111827">Inference</text>
  <text x="140" y="264" text-anchor="middle" font-size="11" fill="#6b7280">Client request</text>
  <line x1="200" y1="118" x2="240" y2="118" stroke="#2563eb" stroke-width="1.5" marker-end="url(#ab)"/>
  <line x1="370" y1="118" x2="410" y2="118" stroke="#2563eb" stroke-width="1.5" marker-end="url(#ab)"/>
  <line x1="540" y1="118" x2="580" y2="118" stroke="#2563eb" stroke-width="1.5" marker-end="url(#ab)"/>
  <line x1="720" y1="118" x2="760" y2="118" stroke="#2563eb" stroke-width="1.5" marker-end="url(#ab)"/>
  <line x1="825" y1="146" x2="825" y2="220" stroke="#16a34a" stroke-width="1.5" marker-end="url(#ag)"/>
  <rect x="790" y="178" width="70" height="15" rx="3" fill="#ffffff" opacity="0.95"/>
  <text x="825" y="190" text-anchor="middle" font-size="11" fill="#16a34a">F1 >= 0.90</text>
  <line x1="760" y1="248" x2="720" y2="248" stroke="#16a34a" stroke-width="1.5" marker-end="url(#ag)"/>
  <rect x="726" y="240" width="48" height="15" rx="3" fill="#ffffff" opacity="0.95"/>
  <text x="750" y="252" text-anchor="middle" font-size="11" fill="#16a34a">register</text>
  <line x1="580" y1="248" x2="540" y2="248" stroke="#ea580c" stroke-width="1.5" marker-end="url(#ao)"/>
  <rect x="540" y="240" width="48" height="15" rx="3" fill="#ffffff" opacity="0.95"/>
  <text x="556" y="252" text-anchor="middle" font-size="11" fill="#ea580c">promote</text>
  <line x1="410" y1="248" x2="370" y2="248" stroke="#ea580c" stroke-width="1.5" marker-end="url(#ao)"/>
  <line x1="240" y1="248" x2="200" y2="248" stroke="#2563eb" stroke-width="1.5" marker-end="url(#ab)"/>
  <rect x="340" y="340" width="280" height="60" rx="8" fill="#faf5ff" stroke="#ede9fe" stroke-width="1.5" stroke-dasharray="6,3"/>
  <text x="480" y="366" text-anchor="middle" font-size="13" font-weight="600" fill="#7c3aed">Airflow DAG Orchestrator</text>
  <text x="480" y="384" text-anchor="middle" font-size="11" fill="#6b7280">deepfake_pipeline DAG (daily) + retraining_dag (weekly)</text>
  <path d="M 480,340 L 480,168 L 480,146" stroke="#9333ea" stroke-width="1.5" fill="none" stroke-dasharray="4,2"/>
  <rect x="640" y="340" width="200" height="60" rx="8" fill="#eff6ff" stroke="#bfdbfe" stroke-width="1.5" stroke-dasharray="6,3"/>
  <text x="740" y="366" text-anchor="middle" font-size="13" font-weight="600" fill="#1d4ed8">MLflow Tracking</text>
  <text x="740" y="384" text-anchor="middle" font-size="11" fill="#6b7280">metrics, params, artifacts</text>
  <path d="M 740,340 L 740,276" stroke="#2563eb" stroke-width="1.5" fill="none" stroke-dasharray="4,2"/>
  <rect x="40" y="340" width="220" height="60" rx="8" fill="#fef2f2" stroke="#fecaca" stroke-width="1.5" stroke-dasharray="6,3"/>
  <text x="150" y="366" text-anchor="middle" font-size="13" font-weight="600" fill="#dc2626">Prometheus + Grafana</text>
  <text x="150" y="384" text-anchor="middle" font-size="11" fill="#6b7280">NRT metrics and alerting</text>
  <path d="M 150,340 L 150,276" stroke="#dc2626" stroke-width="1.5" fill="none" stroke-dasharray="4,2"/>
</svg>