<svg xmlns="http://www.w3.org/2000/svg" viewBox="0 0 960 380" width="960" height="380">
  <style>text { font-family: "Helvetica Neue", Helvetica, Arial, sans-serif; }</style>
  <defs>
    <marker id="ab" markerWidth="10" markerHeight="7" refX="9" refY="3.5" orient="auto"><polygon points="0 0, 10 3.5, 0 7" fill="#2563eb"/></marker>
    <marker id="ag" markerWidth="10" markerHeight="7" refX="9" refY="3.5" orient="auto"><polygon points="0 0, 10 3.5, 0 7" fill="#16a34a"/></marker>
  </defs>
  <rect width="960" height="380" fill="#ffffff"/>
  <text x="480" y="32" text-anchor="middle" font-size="18" font-weight="600" fill="#111827">DVC Pipeline DAG — CI and Data Versioning</text>
  <rect x="80" y="140" width="140" height="70" rx="8" fill="#eff6ff" stroke="#bfdbfe" stroke-width="1.5"/>
  <rect x="80" y="140" width="140" height="22" rx="8" fill="#bfdbfe" stroke="none"/>
  <text x="150" y="156" text-anchor="middle" font-size="12" font-weight="600" fill="#111827">extract_frames</text>
  <text x="150" y="178" text-anchor="middle" font-size="10" fill="#6b7280">data/raw/</text>
  <text x="150" y="194" text-anchor="middle" font-size="10" fill="#6b7280">data/frames/</text>
  <rect x="250" y="140" width="140" height="70" rx="8" fill="#f0fdf4" stroke="#bbf7d0" stroke-width="1.5"/>
  <rect x="250" y="140" width="140" height="22" rx="8" fill="#bbf7d0" stroke="none"/>
  <text x="320" y="156" text-anchor="middle" font-size="12" font-weight="600" fill="#111827">detect_faces</text>
  <text x="320" y="178" text-anchor="middle" font-size="10" fill="#6b7280">data/frames/</text>
  <text x="320" y="194" text-anchor="middle" font-size="10" fill="#6b7280">data/faces/</text>
  <rect x="420" y="140" width="140" height="70" rx="8" fill="#faf5ff" stroke="#ede9fe" stroke-width="1.5"/>
  <rect x="420" y="140" width="140" height="22" rx="8" fill="#ede9fe" stroke="none"/>
  <text x="490" y="156" text-anchor="middle" font-size="12" font-weight="600" fill="#111827">compute_features</text>
  <text x="490" y="178" text-anchor="middle" font-size="10" fill="#6b7280">data/faces/</text>
  <text x="490" y="194" text-anchor="middle" font-size="10" fill="#6b7280">data/features/</text>
  <rect x="590" y="140" width="140" height="70" rx="8" fill="#fff7ed" stroke="#fed7aa" stroke-width="1.5"/>
  <rect x="590" y="140" width="140" height="22" rx="8" fill="#fed7aa" stroke="none"/>
  <text x="660" y="156" text-anchor="middle" font-size="12" font-weight="600" fill="#111827">train</text>
  <text x="660" y="178" text-anchor="middle" font-size="10" fill="#6b7280">data/features/</text>
  <text x="660" y="194" text-anchor="middle" font-size="10" fill="#6b7280">ml/model.pt</text>
  <rect x="760" y="140" width="140" height="70" rx="8" fill="#fef2f2" stroke="#fecaca" stroke-width="1.5"/>
  <rect x="760" y="140" width="140" height="22" rx="8" fill="#fecaca" stroke="none"/>
  <text x="830" y="156" text-anchor="middle" font-size="12" font-weight="600" fill="#111827">evaluate</text>
  <text x="830" y="178" text-anchor="middle" font-size="10" fill="#6b7280">ml/model.pt</text>
  <text x="830" y="194" text-anchor="middle" font-size="10" fill="#6b7280">metrics.json</text>
  <line x1="220" y1="175" x2="250" y2="175" stroke="#2563eb" stroke-width="1.5" marker-end="url(#ab)"/>
  <line x1="390" y1="175" x2="420" y2="175" stroke="#2563eb" stroke-width="1.5" marker-end="url(#ab)"/>
  <line x1="560" y1="175" x2="590" y2="175" stroke="#2563eb" stroke-width="1.5" marker-end="url(#ab)"/>
  <line x1="730" y1="175" x2="760" y2="175" stroke="#2563eb" stroke-width="1.5" marker-end="url(#ab)"/>
  <rect x="80" y="260" width="800" height="80" rx="8" fill="#f9fafb" stroke="#e5e7eb" stroke-width="1.5" stroke-dasharray="5,3"/>
  <text x="480" y="284" text-anchor="middle" font-size="13" font-weight="600" fill="#374151">DVC Commands</text>
  <text x="480" y="306" text-anchor="middle" font-size="12" fill="#6b7280">dvc repro — run all stages in dependency order</text>
  <text x="480" y="326" text-anchor="middle" font-size="12" fill="#6b7280">dvc dag — visualise pipeline graph   |   dvc push/pull — sync data with remote</text>
</svg>